<svg id="Layer_1" data-name="Layer 1" xmlns="http://www.w3.org/2000/svg" xmlns:xlink="http://www.w3.org/1999/xlink" viewBox="0 0 1012.29 1481.79"><defs><style>.cls-1{fill:#539461;}.cls-2{opacity:0;}.cls-3{fill:#fff;}.cls-4{fill:#231f20;}.cls-10,.cls-11,.cls-12,.cls-14,.cls-5,.cls-6,.cls-9{stroke:#231f20;}.cls-10,.cls-11,.cls-12,.cls-14,.cls-5,.cls-6,.cls-7,.cls-9{stroke-linecap:round;stroke-miterlimit:10;}.cls-5,.cls-7{stroke-width:2px;}.cls-6{stroke-width:3px;}.cls-10,.cls-7{fill:none;}.cls-7{stroke:#000;}.cls-11,.cls-12,.cls-13,.cls-8{fill:#9bb99e;}.cls-12{stroke-width:0.75px;}.cls-13{opacity:0.4;}.cls-14{fill:#26473b;}</style></defs><title>morpheus</title><path class="cls-1" d="M746.66,684.58c50.84.77,67.92-12.78,73.74-26,4-9.13,4-21.13,13.71-29s22.61-6.42,26.58-6c8.86.95,11.43,3.93,18.86,6,13.76,3.83,28.67.22,38.59-6,18-11.29,34.45-40.57,26.57-66-6.85-22.14-29.48-32.71-45.44-33-11.83-.21-14,5.34-40.29,9-16.72,2.33-22.86,1.06-28.3-2-2.83-1.6-14.06-8.52-17.14-23-2.51-11.75,1.83-21.53,5.14-29,2-4.54,6.94-15.3,17.15-22,11-7.2,15.51-1.48,28.29-8,4.64-2.36,19.48-9.93,21.44-25,1.56-12.11-5.94-23.42-12.87-29-10-8.05-21.71-6.59-26.57-6-80,9.69-88.14.1-108,13-41.52,26.93-60.93,104.35-48,188" transform="translate(-49.44 -41.79)"/><path class="cls-1" d="M485.69,229.28c-24.89-8.87-35.16-23-39.17-29.63-24-39.91,1.55-103.08,34.31-133.43,8.89-8.24,21.57-21.32,43.52-24,16.51-2,32.86,2.62,56,14.62,71.06,36.82,89.4,82.84,113.9,78.14,28.89-5.55,20.45-72.81,43.27-75.41,13.43-1.54,37.81,19.3,85.91,123.26" transform="translate(-49.44 -41.79)"/><path class="cls-1" d="M106.23,336.08c6.56-28.76,2.47-33.63,8.87-41.53,8.29-10.25,22.63-11.29,25.13-11.47,21.73-1.57,28.15,16.42,53,22,19.93,4.48,46.31-.28,52-13,7.17-16-27-32.54-24-58,3.61-30.37,58.15-56.25,76-43,16.65,12.36-5.28,53.75,16,70,8.75,6.68,21.45,6.55,30,3,18.58-7.71,22.84-33.72,25-47,7.49-45.78-14.53-57.69-6-89,10.19-37.33,50.92-54.94,58-58,10.42-4.5,47.7-20.61,82-2,34,18.46,41,58,44,75,6.29,35.59-24.42,58.7-11,81,5.22,8.68,10.09,7,17,15,25,28.89,8,104.46-38,145-24.94,22-33.56,11.78-61,33-45.27,35-76.07,104.81-55,149,16.79,35.2,58.87,38.22,57,59-2,22.66-53.53,35.08-62,37-53,12.07-62.78-12.83-123-4-27.86,4.09-42.21,11.83-85,15-19.58,1.45-29.37,2.18-41,0-45-8.43-71.59-45.64-79-56-6.71-9.4-28.84-38.54-5-68,12.88-15.91,23.1-52.22,40-41,13.48,8.94,9.18,21.57,22,35,19,19.95,63.44,28.67,84,6,18.71-20.61,11.2-60-8-77-17.51-15.47-34.15-2.86-63-21-5.5-3.46-25.66-17-35-42-7.5-20.12,0-49,0-49h0S104.14,345.27,106.23,336.08Z" transform="translate(-49.44 -41.79)"/><path class="cls-1" d="M917.88,285.55c-7.81-8.86-14.07-7.86-19.69-17.17-14.44-24,26.41-42.87,22.3-79.1-2-17.34-6.53-57.55-47.15-80.41-41-23.06-89.28-12-102.79-8.88-9.18,2.1-62,14.21-78.67,50-14,30,14.11,30.47-29.78,48.63-24.92-19-38.66,19.9-58.18,5.4C583,188.46,512,207,504.31,236.7c-6.46,24.91,34.57,45.88,23.92,60.86-10.45,14.68-58.88,7.2-66.43,6-38.95-6-50.4-20.28-66.5-17.1-15.23,3-40.13-45-43.53,18,1.1,37.32-8.44,41-12.11,41.45-8.48,1-12.85,26.49-5.16,48.73,9,26.12,32.84,42.23,39.36,46.4,34.18,21.86,56.32,11.53,76.6,29.24,22.23,19.41,27.47,59.61,1.9,77.63-28.12,19.81-82.74,5.26-104.46-17.1-14.62-15.06-7.92-27.05-23.83-37.72-20-13.4-58.22-13.12-76,1-32.94,26.14,13.32,92.52,20.74,102.76,8.17,11.29,37.5,51.81,92.93,66.16,14.31,3.71,54.08,44.9,78.74,46.05,53.86,2.52,75.51,12.11,110.79,11.74,76.27-.8,55.55-30.75,123.14-35.72,10.79-.8,76.52-6.32,81.46-28.58,4.53-20.41-47.81-29-65.09-66.23-21.71-46.74,24.17-112.06,84.5-140.88,36.56-17.46,46.27-6.16,79.79-24.73C916.85,390.48,946.15,317.59,917.88,285.55ZM602.24,585.35c-10.33,4.78-21.33,9.27-33,8.8a55.54,55.54,0,0,1-29.12-10c-2-1.38-3.9-2.92-5.83-4.41l-.24-.19-.29-.2c-2.21-1.53-4.35-3.17-6.57-4.7-4.46-3.08-9-6-13.62-8.87-9.43-5.88-19-11.53-28.35-17.54a18.92,18.92,0,0,1-6.64-25.32c4.53-8.57,17.16-11.88,25.31-6.63,16.41,10.56,33.62,19.93,49.26,31.65,1.74,1.31,3.46,2.64,5.18,4s1.89,1.47.46.28c1.75,1.13,3.48,2.28,5.32,3.26.48.26,1,.49,1.47.73l.45.17c.82.27,1.65.5,2.49.7l1.06.22c1,0,2.15-.11,2.64-.14.67-.13,1.33-.26,2-.42,2-.49,3.85-1.19,5.78-1.8.88-.34,1.35-.53,1.47-.56.69-.31,1.38-.61,2.06-.93C593,549.05,603,551,608.88,560,613.93,567.88,611.05,581.28,602.24,585.35Z" transform="translate(-49.44 -41.79)"/><image class="cls-2" width="1698" height="1184" transform="translate(163.29 889.79) scale(0.5)" xlink:href="../Desktop/Screenshot 2022-10-27 at 14.51.02.png"/><path class="cls-3" d="M395.5,298.44c-3.54-23.86-5.21-63,14.56-101.39a143.27,143.27,0,0,1,9.69-16.16,141.84,141.84,0,0,1,28-32.9c45.24-38.9,120-51.5,168.37-20.34,20.81,13.42,37.72,28.89,46.58,40.93s13.86,26.82,15.64,36.91a111.48,111.48,0,0,1,3.36,21.09c.92,12,.89,21,2.46,34.88a155.77,155.77,0,0,0,2.94,17,159.08,159.08,0,0,0,8.86,27c8.23,20.15,7.74,43.17,6.81,59-.91,15.19-1.41,20.36-7.07,52.21-.29,1.67-3.05,16.79-4,22.78-1.09,7.07-1.34,9.73-2,14a132.25,132.25,0,0,1-4,19c-2.9,9.43-6.84,15.8-11.93,24a169.57,169.57,0,0,1-12.9,18c-5,6.17-13.31,16.28-24.81,25-5.38,4.1-24.23,16.91-47.57,21.09-6.45,1.15-29.47,4.1-56.42-8.89-30.67-14.77-43.53-17.9-61.31-36.85-9-9.55-18.21-18.16-28.65-30.93-12.4-15.17-21.73-24.95-28.62-46.92-1.86-5.94-.78-16.54-4.63-21.79a14.1,14.1,0,0,0-3.24-3.19c-1.86-1.21-3.83-1.63-6.35-2.32-1.75-.48-2.87-.57-6.52-1.65-9.89-2.92-17.15-16-21.72-28.94-6.57-18.54-5.32-33.68-2.84-64,.28-3.38.95-10.44,6-16a14.84,14.84,0,0,1,7.94-5C389.12,292.59,394.76,297.73,395.5,298.44Z" transform="translate(-49.44 -41.79)"/><path class="cls-4" d="M395.36,298.17a13.71,13.71,0,0,1-.47-1.86l-.29-2.14c-.19-1.44-.37-2.88-.52-4.32q-.48-4.34-.77-8.67-.57-8.7-.34-17.42a166,166,0,0,1,4.49-34.51,146.33,146.33,0,0,1,20.93-47.73c.83-1.17,1.54-2.41,2.34-3.64s1.6-2.43,2.42-3.64c1.65-2.4,3.38-4.75,5.16-7.05A139.93,139.93,0,0,1,453,142.52a155.32,155.32,0,0,1,29.86-18.11,166.63,166.63,0,0,1,67.76-15.64,135.28,135.28,0,0,1,34.8,4,107.47,107.47,0,0,1,32.22,13.94,226,226,0,0,1,27.91,21.1,165.34,165.34,0,0,1,12.52,12.32c1.94,2.21,3.87,4.43,5.64,6.81a79.05,79.05,0,0,1,4.94,7.38,95.1,95.1,0,0,1,7.51,16c1,2.77,1.9,5.59,2.64,8.45q.56,2.14,1,4.32l.42,2.15c.12.59.31,1.32.49,2a109.39,109.39,0,0,1,2.8,17.44c.51,5.83.78,11.64,1.11,17.41s.74,11.51,1.37,17.23a152.58,152.58,0,0,0,7.42,33.42c.92,2.7,1.93,5.37,3,8l1.66,4c.52,1.39,1.09,2.77,1.57,4.18,3.87,11.26,5.43,23.1,5.83,34.82.19,5.87.07,11.73-.2,17.56s-.61,11.61-1.21,17.47-1.45,11.61-2.36,17.36-1.88,11.46-2.86,17.18l-3,17.12c-1,5.7-1.92,11.35-2.65,17.07s-1.6,11.55-2.79,17.36a82.67,82.67,0,0,1-5.42,17.1,139.25,139.25,0,0,1-8.62,15.49,168.2,168.2,0,0,1-10,14.55c-1.79,2.35-3.64,4.62-5.48,6.87s-3.77,4.51-5.74,6.7a132.9,132.9,0,0,1-12.67,12.44c-2.27,1.92-4.6,3.79-7.06,5.52s-4.94,3.32-7.49,4.85a128.23,128.23,0,0,1-15.85,8.06,113.3,113.3,0,0,1-16.92,5.7c-1.44.39-2.92.67-4.38,1s-3,.58-4.47.78a79.86,79.86,0,0,1-9,.71,99.47,99.47,0,0,1-35.24-5.66c-2.82-1-5.6-2.07-8.32-3.3s-5.31-2.5-7.92-3.74c-5.22-2.47-10.47-4.88-15.74-7.31s-10.58-4.92-15.77-7.81a97.82,97.82,0,0,1-14.83-10c-2.31-1.89-4.51-3.91-6.63-6s-4.17-4.26-6.11-6.33l-12-12.55c-4-4.23-8-8.57-11.71-13.06-1.89-2.25-3.71-4.52-5.53-6.74l-5.5-6.77a137.72,137.72,0,0,1-10.3-14.38,97.31,97.31,0,0,1-7.79-16c-.5-1.39-1-2.77-1.49-4.18l-.69-2.1-.34-1.05c-.12-.37-.24-.8-.33-1.18a64.87,64.87,0,0,1-1.14-8.95,41.76,41.76,0,0,0-1.28-8.13,10.14,10.14,0,0,0-1.54-3.24,11.46,11.46,0,0,0-1.21-1.4c-.23-.22-.45-.44-.69-.64l-.35-.29-.47-.34.16.11a13.39,13.39,0,0,0-3.93-1.61l-2.32-.64-2.36-.57c-.82-.2-1.64-.42-2.45-.65l-1.2-.36c-.43-.15-.88-.28-1.3-.45a20.28,20.28,0,0,1-4.71-2.65,33.33,33.33,0,0,1-7.12-7.52,61.14,61.14,0,0,1-5.1-8.71,95.85,95.85,0,0,1-6.77-18.77,82,82,0,0,1-1.74-9.84q-.56-5-.61-9.93c-.07-6.62.36-13.18.87-19.72s1.12-13,1.82-19.6a28.56,28.56,0,0,1,2.95-9.6,21.32,21.32,0,0,1,2.9-4.15,18.45,18.45,0,0,1,3.76-3.39,13,13,0,0,1,9.76-2,15.86,15.86,0,0,1,4.71,1.73,19.28,19.28,0,0,1,2.11,1.34c.34.24.67.5,1,.76l.47.41.23.21.11.11,0,0s0,0-.07,0A.2.2,0,0,0,395.36,298.17Zm.28.53a.46.46,0,0,1-.3,0l-.13-.09,0,0-.11-.09-.23-.2-.47-.38c-.31-.25-.64-.48-1-.71a19.69,19.69,0,0,0-2.07-1.22,15.25,15.25,0,0,0-4.52-1.51,12,12,0,0,0-8.91,2.11,18.23,18.23,0,0,0-3.43,3.26,19.59,19.59,0,0,0-2.61,3.95,26.67,26.67,0,0,0-2.54,9.13c-.53,6.45-.94,13-1.32,19.54s-.6,13-.37,19.5c.13,3.24.37,6.46.78,9.64a79.28,79.28,0,0,0,1.85,9.45,93.06,93.06,0,0,0,6.85,18,58.55,58.55,0,0,0,4.95,8.13,29.73,29.73,0,0,0,6.43,6.57,16.42,16.42,0,0,0,3.86,2.08c.33.14.67.22,1,.34l1.15.32c.77.21,1.53.4,2.3.57l2.43.53,2.42.63a17.52,17.52,0,0,1,5.13,2.05l.16.12c-.18-.14.12.08.15.1l.26.19.49.39c.32.27.63.54.93.83a15.42,15.42,0,0,1,1.66,1.85,14.33,14.33,0,0,1,2.28,4.51,45.5,45.5,0,0,1,1.62,9,65.92,65.92,0,0,0,1.16,8.27c.08.32.16.58.26.91l.34,1,.69,2c.45,1.35,1,2.66,1.47,4a91.85,91.85,0,0,0,7.57,15.14,132.38,132.38,0,0,0,10.08,13.76l5.53,6.67c1.87,2.24,3.7,4.47,5.56,6.63,3.72,4.36,7.63,8.56,11.63,12.7l12.16,12.43c2.05,2.13,4,4.16,6,6.12s4.14,3.83,6.33,5.59c8.69,7.1,19,12,29.47,16.8,5.25,2.41,10.55,4.82,15.81,7.29,2.63,1.24,5.28,2.52,7.81,3.66s5.19,2.17,7.85,3.09a93.56,93.56,0,0,0,33.06,5.22,76.67,76.67,0,0,0,8.32-.64c1.38-.17,2.72-.41,4.1-.7s2.75-.53,4.1-.9a105.18,105.18,0,0,0,16-5.32,121.13,121.13,0,0,0,15.14-7.62c2.43-1.44,4.83-3,7.13-4.57s4.48-3.34,6.65-5.15a132,132,0,0,0,12.19-11.83c1.92-2.1,3.78-4.26,5.62-6.46s3.66-4.43,5.41-6.67a167.17,167.17,0,0,0,9.78-14A133.06,133.06,0,0,0,680,479.81c4.72-10.1,6.38-21.47,8-32.89.78-5.76,1.74-11.56,2.77-17.26l3.09-17.11c1-5.7,2-11.4,3-17.09s1.85-11.38,2.46-17.07,1-11.45,1.31-17.21.45-11.47.3-17.19c-.33-11.41-1.79-22.83-5.41-33.54-.44-1.34-1-2.64-1.46-4l-1.64-4c-1.08-2.72-2.1-5.48-3-8.26A157.93,157.93,0,0,1,682,259.82c-.61-5.8-1-11.63-1.3-17.43-.64-11.58-.86-23.15-3.6-34.16-.17-.71-.35-1.38-.52-2.21l-.4-2.12c-.28-1.39-.6-2.77-.95-4.14-.7-2.75-1.54-5.47-2.5-8.15a90.87,90.87,0,0,0-7.13-15.45c-5.68-9.8-13.8-18.09-22.27-25.81a225.51,225.51,0,0,0-27.39-20.95,105.06,105.06,0,0,0-31.24-13.73,132.74,132.74,0,0,0-34-4.19,164,164,0,0,0-66.86,14.91A153,153,0,0,0,454.17,144a138.39,138.39,0,0,0-24.56,24.17q-2.67,3.39-5.15,6.94c-.83,1.18-1.63,2.37-2.42,3.58s-1.53,2.46-2.39,3.65a143.46,143.46,0,0,0-8.89,14.82,148.49,148.49,0,0,0-12.21,32.31,165.12,165.12,0,0,0-4.72,34.28q-.3,8.67.21,17.34c.17,2.89.41,5.77.7,8.65.14,1.44.31,2.87.48,4.31l.28,2.17A20.91,20.91,0,0,1,395.64,298.7Z" transform="translate(-49.44 -41.79)"/><path class="cls-5" d="M557.23,278.08c6.94,5.15,9,9.33,10,12,2.21,6.21.83,11.84,0,15a35.34,35.34,0,0,1-1.5,4.55c-5.72,13.82-17.41,21.78-20.91,23.94-1.34.84-2.37,1.4-2.59,1.51-17.53,9.48-40.5,5.82-58-2-7.4-3.31-10.77-6.33-13-9a33.21,33.21,0,0,1-5-33c4.8-11.59,15.41-16.24,24-20,12.63-5.52,23.74-5.23,30-5C525.4,266.28,542.47,267.13,557.23,278.08Z" transform="translate(-49.44 -41.79)"/><path class="cls-6" d="M607.66,282.38c-6.55,4.67-8.61,8.55-9.56,11.05-2.22,5.8-1.1,11.14-.43,14.15,2.53,11.39,11.07,22.48,22.2,29,22.13,13,46,2.9,53.55-.28,6.92-2.91,10.11-5.67,12.25-8.13a31.91,31.91,0,0,0,5.54-31c-4.09-11.07-13.75-15.75-21.56-19.54-11.49-5.56-21.75-5.59-27.53-5.55C637.35,272.12,621.59,272.45,607.66,282.38Z" transform="translate(-49.44 -41.79)"/><path class="cls-7" d="M568.11,301.18a26.18,26.18,0,0,1,8.22-3.52,26.51,26.51,0,0,1,10-.39c4.52.69,8.44,4.14,10.35,5.31" transform="translate(-49.44 -41.79)"/><path class="cls-4" d="M535.23,361.08a21.83,21.83,0,0,0,2.28,8.63,16.91,16.91,0,0,0,6.09,6.11,18.55,18.55,0,0,0,8.08,2.56,10.67,10.67,0,0,0,4-.5c.66-.22,1.37-.51,2.19-.75a10,10,0,0,1,2.64-.43,12.29,12.29,0,0,1,2.61.27,10.91,10.91,0,0,1,2.51.79c1.49.69,2.72,1.32,4.11,1.91s2.75,1.15,4.15,1.7,2.81,1.11,4.14,1.51a26.62,26.62,0,0,0,4.12.84c1.42.17,2.91.26,4.42.35s3,.18,4.49.22a16.12,16.12,0,0,0,2-.06,5.35,5.35,0,0,0,.86-.15c.32-.08.64-.18,1-.27a17.56,17.56,0,0,0,3.69-1.7c.29-.17.58-.36.85-.55a8.3,8.3,0,0,0,.77-.59c.52-.42.94-.86,1.57-1.48a8.85,8.85,0,0,1,2.36-1.62,11.36,11.36,0,0,1,2.59-.9,14.08,14.08,0,0,1,2.6-.29,22.4,22.4,0,0,1,2.45,0,12.24,12.24,0,0,1,5.13,1.39,10,10,0,0,1,2.23,1.66,9.74,9.74,0,0,1,1.62,2.18c.18.31.26.38.2.33s.07.05.2.05a2.36,2.36,0,0,0,1.23-.35,9.9,9.9,0,0,0,2.84-2.61,14.72,14.72,0,0,0,2.69-7.72,19.87,19.87,0,0,0-3.41-12.22c-.84-1.23-1.77-2.47-2.58-3.77a63.45,63.45,0,0,1-4.37-8.06,86.92,86.92,0,0,0,5.27,7.41c1,1.18,1.93,2.3,2.92,3.49a18.15,18.15,0,0,1,2.59,4,19.37,19.37,0,0,1,2.2,9.31,17.14,17.14,0,0,1-2.78,9.41,13,13,0,0,1-3.68,3.67,5.45,5.45,0,0,1-3.09.89,3.82,3.82,0,0,1-2-.59,3.54,3.54,0,0,1-.82-.75,6.06,6.06,0,0,1-.45-.64c-1.24-2.24-3.53-3.2-6.19-3.28-.66,0-1.37,0-2.11,0a10.33,10.33,0,0,0-1.92.22,7.83,7.83,0,0,0-1.7.61,4.93,4.93,0,0,0-1.37,1c-.45.44-1.08,1.11-1.73,1.65-.32.27-.67.56-1,.81s-.7.48-1.05.7a20.63,20.63,0,0,1-4.56,2.13c-.41.13-.82.25-1.24.34a8.64,8.64,0,0,1-1.38.24,19.87,19.87,0,0,1-2.54,0c-1.59-.05-3.09-.17-4.61-.27s-3.06-.2-4.66-.41a26.58,26.58,0,0,1-4.78-1.07c-1.57-.53-3-1.15-4.38-1.75s-2.82-1.22-4.22-1.88-2.85-1.42-4.08-2.08a9.72,9.72,0,0,0-3.7-1,7.08,7.08,0,0,0-1.86.21c-.64.15-1.36.4-2.16.62a12.6,12.6,0,0,1-5,.34,19.08,19.08,0,0,1-4.69-1.26,19.76,19.76,0,0,1-4.22-2.28,17.81,17.81,0,0,1-6-7.25,16.33,16.33,0,0,1-1.18-4.51A35.29,35.29,0,0,1,535.23,361.08Z" transform="translate(-49.44 -41.79)"/><path class="cls-8" d="M510.23,430.08c-.22-1.83,4.3-3.26,15-8,17.94-7.94,19.07-10.06,28-12,7.73-1.67,12.33-2.67,18-1,4.17,1.23,6.24,3.11,11,3,3.77-.08,4.53-1.31,10-2a35.58,35.58,0,0,1,10,0c3.77.62,6.9,2.42,13,6,7.75,4.54,11.7,6.9,15,11a44.19,44.19,0,0,1,5,8c1.45,3,2.34,4.45,2,5-1.88,3.13-22-4.67-28-7-6.57-2.54-10.86-4.58-17-4-2.8.27-4,.89-8,1-1,0-3.41.06-12-1-6.72-.83-6.25-1-8-1-2.6-.05-5.18.24-12,2-10,2.59-9.37,3.27-14,4a48.56,48.56,0,0,1-14,0C519.14,433.51,510.54,432.55,510.23,430.08Z" transform="translate(-49.44 -41.79)"/><path class="cls-4" d="M510.23,430.08c0-.76.61-1.3,1.19-1.69a16.57,16.57,0,0,1,1.88-1.07c1.29-.64,2.61-1.22,3.93-1.8l7.94-3.47c5.27-2.36,10.44-4.91,15.58-7.54a61.46,61.46,0,0,1,7.93-3.56,85.25,85.25,0,0,1,8.42-2.17,40.5,40.5,0,0,1,8.69-1.15,22.91,22.91,0,0,1,8.66,1.81,29.56,29.56,0,0,0,4,1.4,13.75,13.75,0,0,0,4.05.35,14.81,14.81,0,0,0,4-.84,29.56,29.56,0,0,1,4.31-1.09,41,41,0,0,1,8.87-.64,23,23,0,0,1,4.52.63,23.41,23.41,0,0,1,4.27,1.58c2.69,1.3,5.18,2.77,7.69,4.2s5,2.85,7.5,4.46a33.49,33.49,0,0,1,7,5.75,41.45,41.45,0,0,1,5.06,7.4c.36.65.7,1.33,1,2l.94,1.93a18.85,18.85,0,0,1,1,2.16,3.07,3.07,0,0,1,.19.9,2.06,2.06,0,0,1-.1.83,1.77,1.77,0,0,1-.43.71,2.75,2.75,0,0,1-.92.7,6,6,0,0,1-.82.27,8.57,8.57,0,0,1-2.6.08c-.79-.06-1.54-.19-2.28-.32-1.48-.29-2.91-.65-4.33-1-5.65-1.59-11.07-3.67-16.46-5.78s-10.58-4.87-16.08-5.05a21.92,21.92,0,0,0-4.12.24c-1.38.22-2.88.5-4.36.59a28.74,28.74,0,0,1-4.45,0c-1.46-.1-2.91-.26-4.35-.42-2.88-.35-5.74-.74-8.6-1.17-1.42-.19-2.89-.53-4.23-.63a24,24,0,0,0-4.23.15A80.19,80.19,0,0,0,552,430.5c-2.8.69-5.59,1.41-8.31,2.35a28.26,28.26,0,0,1-4.19,1.18,41.61,41.61,0,0,1-4.31.55,49.11,49.11,0,0,1-8.66-.2c-2.87-.31-5.74-.62-8.59-1.09a38.42,38.42,0,0,1-4.23-.92,11.25,11.25,0,0,1-2-.78C511.06,431.27,510.36,430.82,510.23,430.08Zm0,0a2.4,2.4,0,0,0,1.45,1.5,11.17,11.17,0,0,0,2,.76,36.13,36.13,0,0,0,4.23.89c2.85.45,5.72.75,8.59,1a46.08,46.08,0,0,0,8.63.06,41.07,41.07,0,0,0,4.27-.63,26.27,26.27,0,0,0,4.11-1.25c2.72-1,5.49-1.83,8.28-2.6a80.22,80.22,0,0,1,8.47-2,24.91,24.91,0,0,1,4.4-.3,19.37,19.37,0,0,1,2.22.23l2.14.27c2.85.34,5.72.64,8.59.89,1.43.12,2.86.22,4.28.28a29.44,29.44,0,0,0,4.2-.14c1.4-.13,2.73-.43,4.2-.71a23.15,23.15,0,0,1,4.49-.41,27.4,27.4,0,0,1,8.8,1.7c2.79,1,5.45,2,8.15,3,5.39,2,10.83,3.91,16.3,5.41,1.37.36,2.74.7,4.1.95.67.12,1.35.22,2,.27a5.89,5.89,0,0,0,1.71,0l.21-.06s0,0-.07.05a2,2,0,0,0-.13.27,1,1,0,0,0,0,.3c0,.05,0,0,0-.15-.17-.48-.52-1.15-.83-1.78l-1-2c-.3-.63-.62-1.24-1-1.86a38.66,38.66,0,0,0-4.64-6.89,30.74,30.74,0,0,0-6.33-5.28c-2.36-1.54-4.83-3-7.3-4.51s-4.94-3-7.43-4.24a22.55,22.55,0,0,0-3.79-1.52,20.32,20.32,0,0,0-4-.68,38.1,38.1,0,0,0-8.39.33,27.1,27.1,0,0,0-4.1.9,16.36,16.36,0,0,1-4.47.78,15.41,15.41,0,0,1-4.53-.54,32.65,32.65,0,0,1-4.14-1.59,21.59,21.59,0,0,0-8.12-2,39.5,39.5,0,0,0-8.48.86c-2.82.55-5.67,1.05-8.4,1.87a55,55,0,0,0-8,3.32q-7.77,3.81-15.72,7.26l-8,3.42c-1.33.58-2.65,1.14-4,1.78a17.45,17.45,0,0,0-1.89,1C510.85,428.79,510.19,429.32,510.23,430.08Z" transform="translate(-49.44 -41.79)"/><path class="cls-4" d="M517.23,441.08a47.45,47.45,0,0,0,12.63,7.83,36.37,36.37,0,0,0,7,2.09,26.18,26.18,0,0,0,3.58.46,22.82,22.82,0,0,0,3.59-.13l7.44-.92c2.5-.29,5-.53,7.53-.73,5-.38,10.08-.55,15.13-.56s10.08.25,15.09.5a148.48,148.48,0,0,1,15.09,1.4,70.3,70.3,0,0,1,7.44,1.64,17.1,17.1,0,0,0,7.12.49c4.82-.61,9.32-3.09,13.33-6.07a27.24,27.24,0,0,1-13.09,7.52,18.32,18.32,0,0,1-7.8,0c-2.46-.51-4.86-1-7.32-1.23-4.91-.53-9.89-.76-14.89-.88s-10-.35-15-.34-10,.11-14.94.38q-3.74.19-7.45.52c-2.49.21-5,.48-7.52.64a23.6,23.6,0,0,1-7.77-.75,37.08,37.08,0,0,1-7.21-2.66A41.87,41.87,0,0,1,517.23,441.08Z" transform="translate(-49.44 -41.79)"/><path class="cls-4" d="M556.23,265.08a29,29,0,0,1,7.09,5.63,29.54,29.54,0,0,1,5.12,7.59A34.61,34.61,0,0,1,571.1,287a29.48,29.48,0,0,1,.13,9,70.69,70.69,0,0,0-1.66-8.72,51.2,51.2,0,0,0-2.94-8.22,39.24,39.24,0,0,0-4.5-7.43A65.4,65.4,0,0,0,556.23,265.08Z" transform="translate(-49.44 -41.79)"/><path class="cls-4" d="M534.23,346.08a117.52,117.52,0,0,1-6.66,14.25,138.81,138.81,0,0,1-18.13,25.72,113.33,113.33,0,0,1-11.21,11c3.41-4,6.78-8,10-12s6.37-8.23,9.35-12.49,5.85-8.6,8.63-13S531.61,350.62,534.23,346.08Z" transform="translate(-49.44 -41.79)"/><path class="cls-4" d="M624.23,351.08a59.21,59.21,0,0,1,9.62,8.42,60,60,0,0,1,7.71,10.28,56.45,56.45,0,0,1,3,5.7c.47,1,.85,2,1.28,3s.73,2,1.1,3a53.82,53.82,0,0,1,1.7,6.21c.24,1,.42,2.1.59,3.15s.32,2.06.41,3.25v0a31.1,31.1,0,0,1-.43,6,45.32,45.32,0,0,0-.42-6v0c-.21-.9-.45-2-.71-3s-.55-2-.83-3c-.59-2-1.25-4-2-5.95s-1.57-3.88-2.46-5.76c-.47-.94-.9-1.89-1.42-2.8s-1-1.84-1.51-2.74c-1-1.81-2.2-3.56-3.36-5.3s-2.44-3.4-3.77-5A108.82,108.82,0,0,0,624.23,351.08Z" transform="translate(-49.44 -41.79)"/><path class="cls-4" d="M604,265.38a42.48,42.48,0,0,0-5.85,6.33,31.11,31.11,0,0,0-2.28,3.56c-.36.61-.64,1.25-1,1.87s-.58,1.27-.8,1.94a30,30,0,0,0-1.9,8.18,38.89,38.89,0,0,0,.29,8.6,22,22,0,0,1-1.85-8.66,24.23,24.23,0,0,1,.37-4.49,21.27,21.27,0,0,1,.52-2.2c.18-.73.45-1.44.7-2.15a24.5,24.5,0,0,1,4.72-7.64A23,23,0,0,1,604,265.38Z" transform="translate(-49.44 -41.79)"/><path class="cls-9" d="M414.23,445.08c.07-14.36-3-26.57-12-33h0s4.42,16.55-3,23c-3.85,3.36-7,.58-11,4-5.45,4.65-1.41,11.22-7,24-2.16,5-2.17,3.89-4,9-2.26,6.34-3.64,5.1-6,10-2.05,4.28-3,7-6,12-4.52,7.54-9,14.53-14,25-8.22,17.18-5,21.51-12,28-3,2.82-10.7,5-24,11-7.6,3.4-7.4,3.94-21,11-17.11,8.9-16.22,9.06-23,12-11.47,5-14.52,4.71-25,9s-17.45,8.64-26,14c-18.65,11.71-41.13,27.62-49,35-21.17,19.88-28,27-34,45-5.1,15.3,13.58,27.17,59,32,17.79,1.9,57.78,10,71,12,20,3,37.3,31.15,49,37,20,10,29.72,3.48,59,23,27,18,69.91,18.87,97,26,38,10,79.28,15.68,110,8,32-8,32-8,68-26,4.21-2.1,51.45-42.39,81-45,68-6,57.61-43,78-43,9,0,34.48,5.54,40-8.61a7,7,0,0,0,0-4.39c-4.77-17.87-69.58-63-101-89-40-33-60.46-64-63-76-2-9.39-7.38-17.76-10-27-.5-1.77-1.3-4.72-3-5-2.78-.45-5.1,6.81-12,18-4.17,6.78-7.94,12.81-14,18a36.67,36.67,0,0,1-4,3,57.23,57.23,0,0,1-12,6c-9.37,3.36-33.35,17.67-37,33a34.37,34.37,0,0,1-4,10c-3.16,5.32-6,6.72-6.86,7.11-2.09.91-.27-25.12-3.14-25.11-2.42,0-8.19,24.52-10,23-8.72-7.35-4.1-19.16-13-23-16.9-7.29-8.74-5.38-24-14-11.11-6.28-20.83-9.18-32-15-13.6-7.08-25.68-12.88-38-30-8.85-12.3-19.67-25.82-33-43" transform="translate(-49.44 -41.79)"/><path class="cls-4" d="M461.23,319.08a23.87,23.87,0,0,0-6.12,12.21c-.67,4.46-.21,9.3,2,13.14a12.45,12.45,0,0,0,4.65,4.52,19.31,19.31,0,0,0,6.32,2.1,65.54,65.54,0,0,0,13.75.56c2.32-.08,4.64-.21,7-.35,1.15-.08,2.35-.12,3.44-.25.56-.05,1.12-.15,1.69-.23s1.13-.18,1.69-.3c4.54-.84,9-2.07,13.54-3.24,9-2.43,18-5,27.08-7.16-8.88,2.9-17.69,6-26.65,8.66-4.48,1.36-9,2.62-13.6,3.6-.58.13-1.17.24-1.76.33s-1.17.2-1.77.26c-1.23.15-2.37.19-3.54.28-2.33.16-4.67.3-7,.39a65.65,65.65,0,0,1-14.18-.69,21.19,21.19,0,0,1-6.84-2.45,13.53,13.53,0,0,1-5.13-5.27,18,18,0,0,1-2-6.95,23.76,23.76,0,0,1,.41-7.14,22.33,22.33,0,0,1,2.65-6.58A23.06,23.06,0,0,1,461.23,319.08Z" transform="translate(-49.44 -41.79)"/><path class="cls-4" d="M643.73,347.58a22.81,22.81,0,0,1,7.27,3.11,25.81,25.81,0,0,1,6,5.29,26.63,26.63,0,0,1,2.32,3.28,24.41,24.41,0,0,1,1.77,3.59,22.31,22.31,0,0,1,1.65,7.73,50.92,50.92,0,0,0-3.06-7.07,38.08,38.08,0,0,0-4.21-6.26,30.32,30.32,0,0,0-2.55-2.77,37.67,37.67,0,0,0-2.82-2.53A52.5,52.5,0,0,0,643.73,347.58Z" transform="translate(-49.44 -41.79)"/><path class="cls-4" d="M595.73,376.58a7.4,7.4,0,0,0,2-1.33,18.91,18.91,0,0,0,1.67-1.68,37.52,37.52,0,0,0,2.89-3.76c.88-1.32,1.72-2.66,2.46-4.05a17.74,17.74,0,0,0,1.76-4.18c.76-2.84.32-5.89-.2-9l-.78-4.74a36.61,36.61,0,0,0-1-4.53,61.45,61.45,0,0,0-3.34-8.78c-.64-1.48-1.26-2.95-1.93-4.37s-1.4-2.81-2.12-4.28a33.43,33.43,0,0,1-3-9.41,36.1,36.1,0,0,1-.28-9.73,48.89,48.89,0,0,0,1.74,9.4,37.74,37.74,0,0,0,1.55,4.45,31.11,31.11,0,0,0,2.07,4.17,89.17,89.17,0,0,1,4.57,8.58,59.18,59.18,0,0,1,3.62,9.16,37.7,37.7,0,0,1,1,4.9c.23,1.58.49,3.16.68,4.78a41.86,41.86,0,0,1,.39,4.95,14.81,14.81,0,0,1-.78,5.13,18.25,18.25,0,0,1-2.33,4.5,41.92,41.92,0,0,1-3,3.92,32.48,32.48,0,0,1-3.46,3.48A11,11,0,0,1,595.73,376.58Z" transform="translate(-49.44 -41.79)"/><path class="cls-4" d="M378.23,308.08a21.53,21.53,0,0,1,9.7,2.91,22.16,22.16,0,0,1,4.19,3.1,23.3,23.3,0,0,1,3.32,4.09,25.22,25.22,0,0,1,3.2,9.82,26.08,26.08,0,0,1-.41,10.08,65.74,65.74,0,0,0-1.88-9.6,35.67,35.67,0,0,0-3.46-8.72,27.51,27.51,0,0,0-2.79-3.67,31.57,31.57,0,0,0-3.46-3.16A41.21,41.21,0,0,0,378.23,308.08Z" transform="translate(-49.44 -41.79)"/><path class="cls-4" d="M379.23,324.08a45.54,45.54,0,0,1,1.66,22.14c-.34,1.87-.86,3.71-1.35,5.45a47.94,47.94,0,0,0-1.22,5.22,21.35,21.35,0,0,0,.49,10.22,29.27,29.27,0,0,0,4.86,9.24,32.12,32.12,0,0,0,7.62,7.24,22.17,22.17,0,0,0,2.3,1.27,28.19,28.19,0,0,1,2.54,1.32,13.92,13.92,0,0,1,4.11,4.16,20.65,20.65,0,0,1,3,10.74,22.52,22.52,0,0,0-4.19-9.87,12.16,12.16,0,0,0-3.89-3.32c-1.48-.73-3.36-1.32-5-2.29a26.27,26.27,0,0,1-4.68-3.37,34.45,34.45,0,0,1-4-4.12,31.37,31.37,0,0,1-5.5-10.11,23.86,23.86,0,0,1-.41-11.62c.76-3.78,2.2-7.24,3.09-10.66C380.36,338.77,380.25,331.38,379.23,324.08Z" transform="translate(-49.44 -41.79)"/><path class="cls-4" d="M381.23,345.08a19.86,19.86,0,0,1,5.1,5.12,24,24,0,0,1,3.22,6.56,23,23,0,0,1,1.08,7.23,18.67,18.67,0,0,1-1.4,7.09c-.29-2.4-.53-4.68-1-6.91a51.26,51.26,0,0,0-1.6-6.52,55.84,55.84,0,0,0-2.4-6.28C383.38,349.28,382.3,347.25,381.23,345.08Z" transform="translate(-49.44 -41.79)"/><path class="cls-4" d="M537.73,500.58a69.11,69.11,0,0,1,19.51-10.49,73.06,73.06,0,0,1,21.94-3.95,64.24,64.24,0,0,1,11.17.7,54.48,54.48,0,0,1,10.88,2.64,47.35,47.35,0,0,1,18.5,12.1,54.78,54.78,0,0,0-19-10.63,59.88,59.88,0,0,0-10.64-2.23,64.79,64.79,0,0,0-10.87-.58,81,81,0,0,0-21.5,3.43A86.67,86.67,0,0,0,537.73,500.58Z" transform="translate(-49.44 -41.79)"/><path class="cls-10" d="M588.23,701.08a175.1,175.1,0,0,0,33-46c5.27-10.66,12.55-25.72,15-47a126.57,126.57,0,0,0-2-41" transform="translate(-49.44 -41.79)"/><path class="cls-10" d="M582.23,656.08c8.57-9.47,15.86-16.9,21-22,8.56-8.48,10.35-9.68,13-14,4.95-8.05,4.67-13.56,8-28a224,224,0,0,1,7-24" transform="translate(-49.44 -41.79)"/><path class="cls-4" d="M466.23,263.08a82.58,82.58,0,0,1,21.26-7.7,98.43,98.43,0,0,1,22.65-2.24c3.81.06,7.59.33,11.33.75s7.46.92,11.17,1.65a102.09,102.09,0,0,1,21.59,6.54c-7.51-.61-14.86-1.37-22.21-1.86-3.66-.26-7.32-.46-11-.66-1.84-.09-3.67-.21-5.49-.26s-3.65-.14-5.47-.17a189.59,189.59,0,0,0-21.81.9C480.94,260.72,473.67,261.85,466.23,263.08Z" transform="translate(-49.44 -41.79)"/><path class="cls-4" d="M610.23,265.08A59.5,59.5,0,0,1,628,257.74a73.09,73.09,0,0,1,9.54-1.61,66.89,66.89,0,0,1,9.76-.44,45.62,45.62,0,0,1,19.11,5,42.74,42.74,0,0,1,14.82,12.4A88.07,88.07,0,0,0,664.55,265a60.64,60.64,0,0,0-17.48-3.34c-3-.13-6,0-9.09.11s-6.12.29-9.2.59C622.66,262.94,616.54,264,610.23,265.08Z" transform="translate(-49.44 -41.79)"/><path class="cls-8" d="M588.73,373.58c6-.9,7-2,9-3,1.43-.71,3.56-2.9,5.8-7.39s1.39-8.86.59-13c-.59-3.05-1.46-5.57-4.38-11.87-5.53-11.93-7-12.79-8.57-17.73-3.08-9.55-.85-16.9-1.54-17s-3.28,9.33-2.36,20.08c.07.81,0,.09,1.28,9,1.67,11.73,1.81,13.46,1.51,16a33,33,0,0,1-3.64,11.12c-3.93,8.05-8.71,11.65-7.59,13.25C579.1,373.37,583.57,374.37,588.73,373.58Z" transform="translate(-49.44 -41.79)"/><path class="cls-11" d="M661.23,346.08" transform="translate(-49.44 -41.79)"/><path class="cls-8" d="M668.23,349.08c.45-3.06,7.27-2.35,14-7,7.88-5.43,8.68-13.39,11-13,4,.67,3,24,3,24-1,23-4.82,37-8,54-6,32.36-5,51-7,51-2.24,0-5-23.21-5-44-.05-22.9-.07-34.36,0-35,.91-7.82,2.69-17.56-3-24C670.86,352.4,667.93,351.14,668.23,349.08Z" transform="translate(-49.44 -41.79)"/><path class="cls-12" d="M655.23,475.08" transform="translate(-49.44 -41.79)"/><path class="cls-8" d="M540.73,504.93c-.35-2.32,12-6.28,20-8.13a87.06,87.06,0,0,1,43,1c8.64,2.48,11.65,4.88,13,6.09,6.24,5.57,11.13,15.9,8,24.36-2.35,6.37-8.25,9-18,13.2-18.42,7.91-35.68,8.61-36,7.1-.23-1.12,9.3-2.43,19-11.16,4.81-4.32,6.34-7.48,7-10.15a18,18,0,0,0-1-11.17C588.66,500.77,541.43,509.41,540.73,504.93Z" transform="translate(-49.44 -41.79)"/><path class="cls-8" d="M611.73,345.58c.68-.18,1.59,5.34,6,12,2.81,4.24,4.3,4.81,5,8a28.69,28.69,0,0,1,0,9h0a21.09,21.09,0,0,0-7-3c-4.41-.72-7.09,2-8,1s2.25-4.28,4-9C615.07,354.6,610.84,345.82,611.73,345.58Z" transform="translate(-49.44 -41.79)"/><path class="cls-8" d="M667.73,249.58c-5.43,3.43-10-3.66-25-4-23.45-.53-39.38,16.19-42,13-1.67-2,4.42-9.44,11-18,20.61-26.81,24.22-29.57,26-37,3.13-13-3.36-24.78-9-35-15.27-27.68-41.26-38.93-40-41,.94-1.53,15.52,4.23,30,14,7.94,5.35,22.95,15.69,35,34C671.85,203.11,679.14,242.39,667.73,249.58Z" transform="translate(-49.44 -41.79)"/><path class="cls-8" d="M712.73,239.58" transform="translate(-49.44 -41.79)"/><path class="cls-8" d="M521.23,270.08c9.4.73,16.11,3.54,22,6a68.93,68.93,0,0,1,12,7,16.22,16.22,0,0,1,5,5,12.86,12.86,0,0,1,2,9,11.2,11.2,0,0,1-4,7c-2.63,2-5.54,2.06-9,2a35.59,35.59,0,0,1-11-2,88.52,88.52,0,0,1-17-8c-11-6.46-10.07-7.56-16-10-3.76-1.54-10.31-4.15-18-3-8.52,1.28-13.67,6.46-14,6s6.44-7.82,17-13A60.59,60.59,0,0,1,521.23,270.08Z" transform="translate(-49.44 -41.79)"/><path class="cls-11" d="M254.23,191.08" transform="translate(-49.44 -41.79)"/><path class="cls-11" d="M562.23,303.08" transform="translate(-49.44 -41.79)"/><path class="cls-8" d="M358.73,260.58" transform="translate(-49.44 -41.79)"/><path class="cls-8" d="M652.39,275.36c8.52,1.34,14.43,4.58,19.62,7.43a61.31,61.31,0,0,1,10.44,7.77,15.62,15.62,0,0,1,4.19,5.32,13.83,13.83,0,0,1,1.18,9.11,11.61,11.61,0,0,1-4.15,6.72c-2.55,1.82-5.2,1.69-8.35,1.4a30.29,30.29,0,0,1-9.89-2.72,78.12,78.12,0,0,1-14.92-9.1c-9.57-7.18-8.63-8.21-13.86-11-3.32-1.79-9.1-4.82-16.19-4.18-7.87.71-12.94,5.53-13.2,5.06s6.44-7.38,16.44-11.85A51.29,51.29,0,0,1,652.39,275.36Z" transform="translate(-49.44 -41.79)"/><path class="cls-13" d="M581.73,433.58c-.29.88,1.68,1,2.5,3.5,1.11,3.38-2.17,5.83-1,8,.63,1.16,2.09,1.44,7,2,5.2.6,7.29.71,10,1a83.17,83.17,0,0,1,13,2c2.9.75,4,1.25,6,1,1.25-.15,2-.48,7-3,4.53-2.26,5-2.53,5-3,0-1.42-5.09-3.21-11.5-5.5-8.53-3.05-7.79-3.85-14.5-5.5-2.86-.7,1.82-.48-9.5-1.5C589.44,432,582.12,432.44,581.73,433.58Z" transform="translate(-49.44 -41.79)"/><path class="cls-14" d="M162.23,367.08" transform="translate(-49.44 -41.79)"/></svg>